inDegrees=yes
name=ik_S49_A07_T02
DataType=double
version=3
OpenSimVersion=4.3-2021-08-27-4bc7ad9
endheader
time	pelvis_tilt	pelvis_list	pelvis_rotation	pelvis_tx	pelvis_ty	pelvis_tz	hip_flexion_r	hip_adduction_r	hip_rotation_r	knee_angle_r	knee_angle_r_beta	ankle_angle_r	subtalar_angle_r	mtp_angle_r	hip_flexion_l	hip_adduction_l	hip_rotation_l	knee_angle_l	knee_angle_l_beta	ankle_angle_l	subtalar_angle_l	mtp_angle_l	lumbar_extension	lumbar_bending	lumbar_rotation	arm_flex_r	arm_add_r	arm_rot_r	elbow_flex_r	pro_sup_r	wrist_flex_r	wrist_dev_r	arm_flex_l	arm_add_l	arm_rot_l	elbow_flex_l	pro_sup_l	wrist_flex_l	wrist_dev_l
5.879999999999963	-5.926279234026879	-2.960017545037258	27.4549688889057	0	0.9399999999999999	0	35.61282397424878	-12.14786230237814	-10.38529204937374	45.32275140501925	0.791031238080472	0	0	0	35.61282397424878	-12.14786230237814	-10.38529204937374	45.32275140501925	0.791031238080472	0	0	0	-5.337366071925718	-2.181215899428331	4.736594803810228	64.66171587796603	-4.168978910406988	-3.905270774789356	42.57331711382179	111.230567257539	0	0	43.92097610788146	-7.810696384795213	19.83341850130673	22.20853758993214	114.7799105758059	0	0
5.899999999999962	-5.97055273254418	-2.956663547681234	27.32847167823498	0	0.9399999999999999	0	35.61549111463767	-12.14583741116868	-10.38505654871624	45.32467302197552	0.791064776623321	0	0	0	35.61549111463767	-12.14583741116868	-10.38505654871624	45.32467302197552	0.791064776623321	0	0	0	-5.373011032986482	-2.163372762803626	4.796457132606948	64.39922507604788	-4.313960132218816	-3.696827975257008	44.01403065285029	111.5211463191906	0	0	43.85947128319978	-7.929662868764989	19.86842019003957	22.3988954956027	114.6780361216184	0	0
5.919999999999962	-5.99307910034732	-2.943395310740671	27.00741158132405	0	0.9399999999999999	0	35.62667366471459	-12.13718630235736	-10.38405598265221	45.33254943453198	0.7912022459556768	0	0	0	35.62667366471459	-12.13718630235736	-10.38405598265221	45.33254943453198	0.7912022459556768	0	0	0	-5.378011678423612	-2.168383663821674	5.018723594383771	64.08460659729475	-4.407728713035309	-3.623958668932703	46.64356643801395	112.311069475617	0	0	43.81677301859825	-8.02459368675083	19.93166028842528	22.45600238452449	114.5235363444568	0	0
5.939999999999961	-6.043065367783589	-2.920797812716549	26.90376041270743	0	0.9399999999999999	0	35.63622601520282	-12.12978631643749	-10.38320033334459	45.33926159523994	0.7913193952599535	0	0	0	35.63622601520282	-12.12978631643749	-10.38320033334459	45.33926159523994	0.7913193952599535	0	0	0	-5.413283709012081	-2.124495724239308	5.015119269769364	64.14406183349402	-4.306478103244079	-3.410148122557094	48.96277238891393	113.1019783416362	0	0	43.79856980671873	-8.060564649519119	19.9912361301786	22.50626238434122	114.4143941266988	0	0
5.959999999999961	-6.084076351746728	-2.899241845850932	26.81639796125566	0	0.9399999999999999	0	35.63964602667122	-12.1270988537836	-10.3828912115731	45.3416355912174	0.7913608293061893	0	0	0	35.63964602667122	-12.1270988537836	-10.3828912115731	45.3416355912174	0.7913608293061893	0	0	0	-5.4402818620557	-2.086892917002967	5.023807131856231	63.91873558013291	-4.573548950538675	-3.460079835981011	49.29566861968647	113.0291395925888	0	0	43.79269709438859	-8.08685590221606	20.05492949186974	22.55071372254234	114.2389571831133	0	0
5.97999999999996	-6.112575972554628	-2.884981640189302	26.91229012151465	0	0.9399999999999999	0	35.64913517808666	-12.11976313092064	-10.38204180070209	45.34829443872736	0.7914770481196264	0	0	0	35.64913517808666	-12.11976313092064	-10.38204180070209	45.34829443872736	0.7914770481196264	0	0	0	-5.467275051034535	-2.037408344536074	4.849286869442476	63.93961273233028	-4.43097336431812	-3.175020303574312	54.25002907553002	114.3669689936816	0	0	43.78546968029553	-8.110323809098118	20.11220680271618	22.53600782528969	114.2721652021851	0	0
5.99999999999996	-6.15183203844072	-2.823742443525328	26.70933690639162	0	0.9399999999999999	0	35.66065274680729	-12.11091053363791	-10.38101421471341	45.3564029664723	0.7916185686262649	0	0	0	35.66065274680729	-12.11091053363791	-10.38101421471341	45.3564029664723	0.7916185686262649	0	0	0	-5.472996810820931	-1.979811361529361	4.94405957238465	63.58432879032897	-4.800881849786564	-2.754673473757824	59.78192392862665	114.6812859900043	0	0	43.75354482148791	-8.11650486651353	20.06397747495895	22.54260287716635	114.2315700544186	0	0
6.01999999999996	-6.173182815273531	-2.795326313128708	26.63631077574515	0	0.9399999999999999	0	35.66501684778025	-12.10761303483772	-10.38062930700139	45.35953127165111	0.7916731678516424	0	0	0	35.66501684778025	-12.10761303483772	-10.38062930700139	45.35953127165111	0.7916731678516424	0	0	0	-5.478865208990206	-1.946990869031707	4.966199090992573	63.51036558057127	-4.953447888638681	-2.457471497066743	61.24154558346542	114.6094674224175	0	0	43.7142054631964	-8.129768544233038	20.06426931385873	22.57873210794763	114.2226139043255	0	0
6.039999999999959	-6.186351718329945	-2.772998611711171	26.72289965276905	0	0.9399999999999999	0	35.66990173823928	-12.10385700964011	-10.38019344526505	45.36297212147812	0.7917332220101904	0	0	0	35.66990173823928	-12.10385700964011	-10.38019344526505	45.36297212147812	0.7917332220101904	0	0	0	-5.485367047742412	-1.905826870212239	4.83802455909584	63.59848530431607	-5.280373795725547	-1.819945506665463	65.19152085674382	114.5844256343068	0	0	43.67261688408773	-8.191461492037936	20.06770080624388	22.59326661142932	114.2530782255398	0	0
6.059999999999959	-6.202388106927716	-2.761904621316178	26.73069241232052	0	0.9399999999999999	0	35.67336061666037	-12.1012028109313	-10.37988517479324	45.36541118315451	0.7917757916671024	0	0	0	35.67336061666037	-12.1012028109313	-10.37988517479324	45.36541118315451	0.7917757916671024	0	0	0	-5.49643562447116	-1.884073718288468	4.802028487001022	63.75359642108638	-5.439964847809923	-1.493927904342641	66.41187506293305	114.4989188408491	0	0	43.68296011239116	-8.225571098981671	20.06892037251262	22.6161260401187	114.2353180985993	0	0
6.079999999999958	-6.217376367024158	-2.736008509123832	26.77468713101207	0	0.9399999999999999	0	35.67698967133827	-12.09842898761983	-10.3795625146505	45.36797778927549	0.7918205873945156	0	0	0	35.67698967133827	-12.09842898761983	-10.3795625146505	45.36797778927549	0.7918205873945156	0	0	0	-5.500555181890173	-1.846838357868662	4.744985116971764	63.90946691296515	-5.619312697896151	-1.196410789848528	68.96613142739638	114.6040586629095	0	0	43.66653567463285	-8.233688452804465	20.07773872831093	22.61303639570144	114.218174914833	0	0
6.099999999999958	-6.224239465711229	-2.71404183493856	26.82630002348394	0	0.9399999999999999	0	35.68066958692826	-12.09561056421297	-10.37923484537713	45.37057328927216	0.7918658874151928	0	0	0	35.68066958692826	-12.09561056421297	-10.37923484537713	45.37057328927216	0.7918658874151928	0	0	0	-5.498578340205367	-1.818219489673268	4.699483887277207	64.12191480972683	-5.836377464530639	-0.9258834758658179	71.45786146894223	114.6841621667179	0	0	43.64220481856282	-8.239807833512407	20.08819548669408	22.6125150126022	114.2174850662631	0	0
6.119999999999957	-6.232102647694044	-2.691653121290771	26.87942331992026	0	0.9399999999999999	0	35.68533054781075	-12.09202752104196	-10.37881874368003	45.37384628907652	0.7919230120381962	0	0	0	35.68533054781075	-12.09202752104196	-10.37881874368003	45.37384628907652	0.7919230120381962	0	0	0	-5.497737088552832	-1.78825681436301	4.64900589183403	64.36922037011469	-6.040649470206546	-0.7017503680797529	73.97451175425014	114.7351606804657	0	0	43.62129446715689	-8.243929076945196	20.06087823083634	22.62134851418625	114.239112077469	0	0
6.139999999999957	-6.239428674631172	-2.668921155662778	26.92866311402578	0	0.9399999999999999	0	35.69009614507198	-12.08836510569475	-10.37839329286277	45.37719030323009	0.7919813760954092	0	0	0	35.69009614507198	-12.08836510569475	-10.37839329286277	45.37719030323009	0.7919813760954092	0	0	0	-5.496105948323895	-1.758603637363954	4.602053252203913	64.635089977384	-6.204162281064422	-0.4895268923015336	76.41282498483919	114.8379212100339	0	0	43.60763436935422	-8.208623889817707	20.03072686088107	22.60240539327334	114.2861757278237	0	0
6.159999999999957	-6.240660336889482	-2.661493971059408	26.99537403704876	0	0.9399999999999999	0	35.69510778209681	-12.08451460893182	-10.37794585555105	45.38070411722379	0.792042703718902	0	0	0	35.69510778209681	-12.08451460893182	-10.37794585555105	45.38070411722379	0.792042703718902	0	0	0	-5.496421165625199	-1.743673768656932	4.536827207136537	64.91951766685712	-6.365193602621846	-0.2325282960634612	78.81186414352798	114.8952059668214	0	0	43.59784730080165	-8.23340675370185	20.03220543146605	22.60502186702119	114.3229991947134	0	0
6.179999999999956	-6.245612639361483	-2.637367791289523	27.02882119183233	0	0.9399999999999999	0	35.69912361691784	-12.08143108736467	-10.3775874000853	45.38351886117036	0.79209183026837	0	0	0	35.69912361691784	-12.08143108736467	-10.3775874000853	45.38351886117036	0.79209183026837	0	0	0	-5.491233148031296	-1.716235152564485	4.509966795264881	65.17360015150682	-6.500725195820306	0.01931135289903505	79.85145092201655	114.8307698492514	0	0	43.58107053087733	-8.251563901886954	20.05083207073527	22.59676945543562	114.3105577874892	0	0
6.199999999999956	-6.244015522592564	-2.621527451576047	27.10316264540484	0	0.9399999999999999	0	35.70457333726456	-12.07727615931757	-10.37710310169129	45.38736076996589	0.7921588842264135	0	0	0	35.70457333726456	-12.07727615931757	-10.37710310169129	45.38736076996589	0.7921588842264135	0	0	0	-5.485989245961723	-1.692974465342582	4.433812133484446	65.1762792517822	-6.568952706091043	0.1165941684109377	82.3840573826501	115.0939692899633	0	0	43.56333835428946	-8.258376597325224	20.05587432791865	22.60423189385513	114.2825132277972	0	0
6.219999999999955	-6.251729071306172	-2.588883030807586	27.13748616470624	0	0.9399999999999999	0	35.70805932347098	-12.07462033532191	-10.37679339374932	45.38981740838243	0.7922017606553131	0	0	0	35.70805932347098	-12.07462033532191	-10.37679339374932	45.38981740838243	0.7922017606553131	0	0	0	-5.47953436184762	-1.655629251657149	4.39513363347334	65.45888406008002	-6.738005673284563	0.378861738733429	84.60666034416234	115.2689702222799	0	0	43.559466739707	-8.218672474535175	20.02680248780633	22.57213946981879	114.3068142100582	0	0
6.239999999999955	-6.254324786856242	-2.594275533771927	27.19898190244176	0	0.9399999999999999	0	35.71176991718391	-12.07182632558073	-10.37646619522331	45.39245981531632	0.792247879356487	0	0	0	35.71176991718391	-12.07182632558073	-10.37646619522331	45.39245981531632	0.792247879356487	0	0	0	-5.486829068012144	-1.651281292128181	4.334245484995113	65.48104490781924	-6.80419601381863	0.445228720275873	86.96691656873089	115.5863967036891	0	0	43.5667128008213	-8.252562337567742	20.0631880567689	22.59218898667325	114.2763935366298	0	0
6.259999999999954	-6.255241417643938	-2.554063252602439	27.1609251823906	0	0.9399999999999999	0	35.71513196608989	-12.06925728584197	-10.37616683008603	45.39481899250989	0.7922890547661527	0	0	0	35.71513196608989	-12.06925728584197	-10.37616683008603	45.39481899250989	0.7922890547661527	0	0	0	-5.469027070711935	-1.616953404000406	4.34988307957848	66.02981038468567	-7.146196314116123	0.708413163978769	88.74971185564138	115.5200671210668	0	0	43.53084930433921	-8.233240002124841	20.05400513131116	22.58247483724091	114.2785650219901	0	0
6.279999999999954	-6.237609422137983	-2.539725670099405	27.18940487746972	0	0.9399999999999999	0	35.71848933276782	-12.0667356706815	-10.37587117811302	45.39721202226937	0.7923308210145539	0	0	0	35.71848933276782	-12.0667356706815	-10.37587117811302	45.39721202226937	0.7923308210145539	0	0	0	-5.448814568634143	-1.606208688012971	4.299900501965507	65.98575682466554	-7.180929768932888	0.7741734859572281	90.83199526703534	115.791525536877	0	0	43.48865500647052	-8.252093351294594	20.03821457424556	22.54953381822074	114.2954947298175	0	0
6.299999999999954	-6.220041941674477	-2.51932616699989	27.21058512065813	0	0.9399999999999999	0	35.72213377808004	-12.06398897586451	-10.37554947497524	45.39979933802324	0.7923759781932476	0	0	0	35.72213377808004	-12.06398897586451	-10.37554947497524	45.39979933802324	0.7923759781932476	0	0	0	-5.425459297621773	-1.591187710359632	4.260408557141172	65.95907493477581	-7.255252996274609	0.8565352212509242	93.48719659720916	116.1407534361594	0	0	43.4787390629728	-8.251927079564611	20.05683490073499	22.49981932295876	114.3000940496324	0	0
